# xmcd
#
# Track frame offsets:
#	150
#	11869
#	27818
#	42000
#
# Disc length: 760 seconds
#
# Revision: 1
# Processed by: cddbd v1.4PL0 Copyright (c) Steve Scherf et al.
# Submitted via: audiograbber 1.80
#
DISCID=2502f604
DTITLE=Levi Wills - The Joke of Time
DYEAR=1900
DGENRE=
TTITLE0=Medallion
TTITLE1=Indivisible
TTITLE2=Bright Black Sky
TTITLE3=Connections
EXTD=
EXTT0=
EXTT1=
EXTT2=
EXTT3=
PLAYORDER=
